<svg xmlns="http://www.w3.org/2000/svg" width="900" height="520" font-family="Arial, sans-serif">
<rect width="900" height="520" fill="#ffffff"/>
<text x="450" y="30" text-anchor="middle" font-size="15" font-weight="bold" fill="#111">HMM State Probabilities Over Time (Viterbi Algorithm)</text>
<line x1="80" y1="450" x2="870" y2="450" stroke="#d1d5db" stroke-dasharray="4 4" stroke-width="1"/>
<text x="72" y="454" text-anchor="end" font-size="11" fill="#555">0</text>
<line x1="80" y1="372" x2="870" y2="372" stroke="#d1d5db" stroke-dasharray="4 4" stroke-width="1"/>
<text x="72" y="376" text-anchor="end" font-size="11" fill="#555">0.0792</text>
<line x1="80" y1="294" x2="870" y2="294" stroke="#d1d5db" stroke-dasharray="4 4" stroke-width="1"/>
<text x="72" y="298" text-anchor="end" font-size="11" fill="#555">0.1584</text>
<line x1="80" y1="216" x2="870" y2="216" stroke="#d1d5db" stroke-dasharray="4 4" stroke-width="1"/>
<text x="72" y="220" text-anchor="end" font-size="11" fill="#555">0.2376</text>
<line x1="80" y1="138" x2="870" y2="138" stroke="#d1d5db" stroke-dasharray="4 4" stroke-width="1"/>
<text x="72" y="142" text-anchor="end" font-size="11" fill="#555">0.3168</text>
<line x1="80" y1="60" x2="870" y2="60" stroke="#d1d5db" stroke-dasharray="4 4" stroke-width="1"/>
<text x="72" y="64" text-anchor="end" font-size="11" fill="#555">0.396</text>
<line x1="80" y1="60" x2="80" y2="450" stroke="#374151" stroke-width="2"/>
<line x1="80" y1="450" x2="870" y2="450" stroke="#374151" stroke-width="2"/>
<text x="80" y="470" text-anchor="middle" font-size="12" fill="#374151">T0 (Walk)</text>
<line x1="80" y1="450" x2="80" y2="455" stroke="#374151" stroke-width="1.5"/>
<text x="343.3333333333333" y="470" text-anchor="middle" font-size="12" fill="#374151">T1 (Walk)</text>
<line x1="343.3333333333333" y1="450" x2="343.3333333333333" y2="455" stroke="#374151" stroke-width="1.5"/>
<text x="606.6666666666666" y="470" text-anchor="middle" font-size="12" fill="#374151">T2 (Shop)</text>
<line x1="606.6666666666666" y1="450" x2="606.6666666666666" y2="455" stroke="#374151" stroke-width="1.5"/>
<text x="870" y="470" text-anchor="middle" font-size="12" fill="#374151">T3 (Clean)</text>
<line x1="870" y1="450" x2="870" y2="455" stroke="#374151" stroke-width="1.5"/>
<text x="475" y="510" text-anchor="middle" font-size="13" fill="#374151">Time Step (Observation)</text>
<text x="15" y="255" text-anchor="middle" font-size="13" fill="#374151" transform="rotate(-90, 15, 255)">Probability</text>
<polyline points="80.00,95.45 343.33,301.09 606.67,418.73 870.00,447.81" fill="none" stroke="#3b82f6" stroke-width="2.5" stroke-linejoin="round" stroke-linecap="round"/>
<circle cx="80.00" cy="95.45" r="6" fill="#3b82f6" stroke="#fff" stroke-width="1.5"/>
<text x="80.00" y="85.45" text-anchor="middle" font-size="10" fill="#3b82f6">0.36</text>
<circle cx="343.33" cy="301.09" r="6" fill="#3b82f6" stroke="#fff" stroke-width="1.5"/>
<text x="343.33" y="291.09" text-anchor="middle" font-size="10" fill="#3b82f6">0.1512</text>
<circle cx="606.67" cy="418.73" r="6" fill="#3b82f6" stroke="#fff" stroke-width="1.5"/>
<text x="606.67" y="408.73" text-anchor="middle" font-size="10" fill="#3b82f6">0.03175</text>
<circle cx="870.00" cy="447.81" r="6" fill="#3b82f6" stroke="#fff" stroke-width="1.5"/>
<text x="870.00" y="437.81" text-anchor="middle" font-size="10" fill="#3b82f6">0.002223</text>
<polyline points="80.00,410.61 343.33,439.36 606.67,432.13 870.00,444.64" fill="none" stroke="#ef4444" stroke-width="2.5" stroke-linejoin="round" stroke-linecap="round"/>
<circle cx="80.00" cy="410.61" r="6" fill="#ef4444" stroke="#fff" stroke-width="1.5"/>
<text x="80.00" y="400.61" text-anchor="middle" font-size="10" fill="#ef4444">0.04</text>
<circle cx="343.33" cy="439.36" r="6" fill="#ef4444" stroke="#fff" stroke-width="1.5"/>
<text x="343.33" y="429.36" text-anchor="middle" font-size="10" fill="#ef4444">0.0108</text>
<circle cx="606.67" cy="432.13" r="6" fill="#ef4444" stroke="#fff" stroke-width="1.5"/>
<text x="606.67" y="422.13" text-anchor="middle" font-size="10" fill="#ef4444">0.01814</text>
<circle cx="870.00" cy="444.64" r="6" fill="#ef4444" stroke="#fff" stroke-width="1.5"/>
<text x="870.00" y="434.64" text-anchor="middle" font-size="10" fill="#ef4444">0.005443</text>
<rect x="730" y="70" width="130" height="54" rx="5" fill="#f9fafb" stroke="#d1d5db" stroke-width="1"/>
<line x1="740" y1="88" x2="760" y2="88" stroke="#3b82f6" stroke-width="2.5"/>
<circle cx="750" cy="88" r="4" fill="#3b82f6"/>
<text x="766" y="93" font-size="12" fill="#111">Sunny</text>
<line x1="740" y1="110" x2="760" y2="110" stroke="#ef4444" stroke-width="2.5"/>
<circle cx="750" cy="110" r="4" fill="#ef4444"/>
<text x="766" y="115" font-size="12" fill="#111">Rainy</text>
</svg>